<svg width="30" height="30" viewBox="0 0 30 30" fill="none" xmlns="http://www.w3.org/2000/svg">
<mask id="mask0" mask-type="alpha" maskUnits="userSpaceOnUse" x="0" y="0" width="30" height="30">
<path d="M30 15C30 23.2843 23.2843 30 15 30C6.71573 30 0 23.2843 0 15C0 6.71573 6.71573 0 15 0C23.2843 0 30 6.71573 30 15Z" fill="#FF5757"/>
</mask>
<g mask="url(#mask0)">
<path d="M45 15C45 23.2843 38.2843 30 30 30C21.7157 30 15 23.2843 15 15C15 6.71573 21.7157 0 30 0C38.2843 0 45 6.71573 45 15Z" fill="#03989E"/>
<path d="M30 30C30 38.2843 23.2843 45 15 45C6.71573 45 0 38.2843 0 30C0 21.7157 6.71573 15 15 15C23.2843 15 30 21.7157 30 30Z" fill="#38B6FF"/>
<path d="M45 30C45 38.2843 38.2843 45 30 45C21.7157 45 15 38.2843 15 30C15 21.7157 21.7157 15 30 15C38.2843 15 45 21.7157 45 30Z" fill="#FF5757"/>
<path d="M45 30C45 38.2843 38.2843 45 30 45C21.7157 45 15 38.2843 15 30C15 21.7157 21.7157 15 30 15C38.2843 15 45 21.7157 45 30Z" fill="#FFBD59"/>
</g>
</svg>
